PathFileType	4	(X/Y/Z)	RBDS013\RBDS013runT35.trc
DataRate	CameraRate	NumFrames	NumMarkers	Units	OrigDataRate	OrigDataStartFrame	OrigNumFrames
150.000000	150.000000	4	33	mm	150.000000	0	4500
Frame#	Time	L.ASIS			L.Heel.Bottom			L.Heel.Lateral			L.Heel.Top			L.Iliac.Crest			L.MT1			L.MT5			L.PSIS			L.Shank.Bottom.Lateral			L.Shank.Bottom.Medial			L.Shank.Top.Lateral			L.Shank.Top.Medial			L.Thigh.Bottom.Lateral			L.Thigh.Bottom.Medial			L.Thigh.Top.Lateral			L.Thigh.Top.Medial			R.ASIS			R.ASY			R.Heel.Bottom			R.Heel.Lateral			R.Heel.Top			R.Iliac.Crest			R.MT1			R.MT5			R.PSIS			R.Shank.Bottom.Lateral			R.Shank.Bottom.Medial			R.Shank.Top.Lateral			R.Shank.Top.Medial			R.Thigh.Bottom.Lateral			R.Thigh.Bottom.Medial			R.Thigh.Top.Lateral			R.Thigh.Top.Medial			
		X1	Y1	Z1	X2	Y2	Z2	X3	Y3	Z3	X4	Y4	Z4	X5	Y5	Z5	X6	Y6	Z6	X7	Y7	Z7	X8	Y8	Z8	X9	Y9	Z9	X10	Y10	Z10	X11	Y11	Z11	X12	Y12	Z12	X13	Y13	Z13	X14	Y14	Z14	X15	Y15	Z15	X16	Y16	Z16	X17	Y17	Z17	X18	Y18	Z18	X19	Y19	Z19	X20	Y20	Z20	X21	Y21	Z21	X22	Y22	Z22	X23	Y23	Z23	X24	Y24	Z24	X25	Y25	Z25	X26	Y26	Z26	X27	Y27	Z27	X28	Y28	Z28	X29	Y29	Z29	X30	Y30	Z30	X31	Y31	Z31	X32	Y32	Z32	X33	Y33	Z33	

1	0	2320.778677531248	935.4887871484341	925.7165104093201	2123.244848055424	256.4462052279446	992.9995005255378	2154.577064371026	261.1099943405919	950.1422215556377	2158.694060071329	287.3749873151705	992.3848681086899	2269.16494841998	1019.288291612693	888.3131054128834	2299.632520383117	140.8628461157381	1015.218844566916	2264.207100796198	151.1466177981476	911.4131820873896	2162.88536021547	996.9946694283469	980.7270249383674	2254.995412325847	324.6516723691579	934.2892146667854	2221.862791155822	347.4353689322722	972.7351876537116	2292.321800511983	395.502284237787	926.0371065872207	2261.199560510399	418.0992975987684	963.6376534867934	2443.971570001177	665.7810055457688	898.2130554949009	2385.748895388786	623.2420129166395	907.2187546846612	2375.738366896495	748.721243776765	872.1620893516595	2320.744830730742	708.6176534983837	881.6779143641071	2316.059553077667	918.6310343594214	1151.798029245866	1884.823536525577	120.6872877573284	1095.194319832132	1728.945453723638	230.1683389121488	1080.394736024678	1757.208688326873	220.9147660893202	1121.646330498315	1773.17843524898	254.7953235239309	1085.199057048388	2294.328531763958	991.1072213805271	1180.545131396448	1871.588135281425	82.82958813287325	1044.173733411477	1841.0855830458	88.64082697478544	1148.24029465409	2160.943892896119	995.2277270305801	1082.90988448444	1849.936760932691	277.0048814471197	1139.549843848371	1824.918862165459	300.0791682044293	1101.227788326184	1891.328600858574	350.0568396207035	1153.584981061738	1862.42858445498	370.6612942507047	1113.769934128481	2110.719509735639	641.3156887367976	1185.457392326375	2061.635941366901	661.852816812477	1134.26065934538	2141.050781428407	746.3934610336337	1193.859014169606	2096.829431128307	766.0188565454121	1143.88020800136	
2	0.006666666666666667	2321.184868240488	938.5736929481268	925.1051185275478	2148.464083981398	233.9118171794385	995.6184798391672	2178.690242055689	240.9277961632472	952.5791596810183	2181.019354800478	267.5366520594014	994.6652076704689	2270.315565940254	1023.730678776321	888.4888290003879	2332.548961707348	134.0435121470355	1016.665997579174	2295.664000042667	140.8914220800103	913.0590061168525	2163.975010223882	1000.767365136633	981.4647961112294	2272.540732710994	311.9859359272473	935.6159952999959	2239.145899462619	332.4034017612177	974.9784795570109	2304.383442459555	384.9585888214347	926.7896725859924	2273.073689056023	405.2334834761764	965.4123306809497	2442.626926608155	666.2745262329846	898.8000711604716	2384.017989616119	624.0538322018301	908.3660996461408	2374.834248068573	749.4552518367889	872.6105024614712	2319.498093348382	709.8244742148996	882.5591259171596	2317.30830147081	922.039728725318	1151.021684001109	1867.43968721237	133.0478208566233	1097.137453044231	1715.877242806035	247.0738433717749	1077.286058407118	1742.655536711217	237.4213289753789	1119.331812366694	1760.746273289399	270.3094002484495	1083.095814258332	2296.767824122796	994.9661356857889	1179.717168766653	1854.459503275158	94.68169422877429	1046.146367708608	1821.474030496671	102.7707637408707	1149.216171946107	2162.643448127307	999.2532782498965	1083.724008991986	1837.31683094522	290.2361479410441	1139.202626729201	1813.676071885549	313.91886566818	1100.446825936737	1881.111841048307	361.8551598168928	1153.480944896758	1853.45980891408	383.2220680496235	1113.148951994294	2109.526831691733	646.7564931922212	1185.751648510887	2060.364437476059	668.005492856523	1134.993421593183	2141.416218939708	751.3676981661418	1194.099713478686	2096.854935261922	771.6931213797318	1144.685242804701	
3	0.01333333333333333	2321.579548956587	941.4970337066466	924.5168512047841	2173.747133606968	211.830252205825	998.1834836227812	2202.870139770656	221.1274165401664	954.9582620009078	2203.39211608997	248.0537369558968	996.8758186247813	2271.330570361378	1027.895533267756	888.637285987829	2365.12729787621	127.6601188389519	1018.194085523652	2326.957566107151	131.0236114488207	914.7670748264355	2165.033524382272	1004.349668644714	982.1252246038651	2290.070316770166	299.5320413260344	936.9055441993056	2256.407581878168	317.5989358684069	977.1300094428771	2316.431244948736	374.4932286791217	927.4862325554607	2284.910336734599	392.4712324906959	967.0653504377442	2441.065671932482	666.4193216154709	899.2461259894612	2382.060319866184	624.5874396584861	909.4284573104626	2373.781315450864	749.8996422042867	872.9548611937265	2318.08193009108	710.7982694176204	883.3843218027231	2318.526470828268	925.3718705159171	1150.295737347364	1850.151170858345	145.6289039527031	1099.003099554044	1703.000334645368	264.2319117494736	1074.248497018099	1728.314883109247	254.1741398111596	1117.059617273279	1748.49641239761	286.0460349280486	1081.036672017457	2299.009776784314	998.7309404081657	1178.94083727966	1837.354491644438	106.8251422336106	1048.020321784776	1801.99784146209	117.1802874750754	1150.121426815657	2164.24788166304	1003.147062654038	1084.461384950156	1824.879489176914	303.6498216459734	1138.818734368356	1802.64235332522	327.9244037913498	1099.618602027589	1871.100747637793	373.7612542820225	1153.324056242734	1844.736127885644	395.8690753910744	1112.470714517157	2108.523355660448	651.940812122531	1186.066953894337	2059.243563640061	673.8716101492547	1135.763980375584	2141.874282693472	756.1180066711099	1194.379171925631	2096.955229343923	777.1125586511565	1145.530715506856	
4	0.02	2321.946270359641	944.1193543431664	923.9749785038252	2199.206606516787	190.6282741927244	1000.649245657205	2227.22769673154	202.0725197291464	957.2286948422862	2225.899109249524	229.2631975261288	998.9525610206994	2272.094680351159	1031.529364071283	888.7323613315051	2397.09898141661	122.1704551653737	1019.858426161788	2357.984662949756	121.9363732181278	916.5873057663248	2166.023149136297	1007.574097874418	982.6412952188089	2307.589809125685	287.5139778916006	938.1227158579575	2273.655106951973	303.2522160358627	979.1113966587292	2328.461125185368	364.2046367071623	928.0825426285904	2296.690595483577	379.9231505082928	968.4983092756585	2439.075204837929	665.9101005168134	899.430440326209	2379.654503846742	624.6101348144663	910.3399275646955	2372.439196642277	749.8075494141231	873.1089861396797	2316.338587191825	711.3510941404915	884.1142590990404	2319.684044171267	928.5669966004922	1149.66913865315	1833.01847316448	158.6551022347166	1100.720189527697	1690.475960136889	281.8994278035494	1071.33563713516	1714.366823332695	271.4271654985923	1114.859387716797	1736.585787384302	302.2298717734409	1079.050044480334	2300.858182748875	1002.325101597534	1178.263256974503	1820.261687658696	119.53567403071	1049.713771585669	1782.748393652919	132.1523832125558	1150.893069709394	2165.674891367759	1006.792300155877	1085.048055327368	1812.78136900463	317.4247427183366	1138.364432220913	1791.996110455795	342.2613609962968	1098.707203596507	1861.477301615426	385.8816346831107	1153.067886612006	1836.472577616531	408.6935138561095	1111.687444393112	2107.873471181882	656.648967655277	1186.418314174289	2058.408038765635	679.2015795253758	1136.597565908171	2142.501289063276	760.4545375120438	1194.72432469722	2097.194276410279	782.0561074577582	1146.440248579879	
